<svg width="264" height="149" viewBox="0 0 264 149" fill="none" xmlns="http://www.w3.org/2000/svg">
<g clip-path="url(#clip0_7329_7003)">
<path d="M87.1274 107.404C87.1274 107.431 87.1295 107.458 87.1295 107.485C85.834 135.233 46.8013 129.407 36.346 148.271V117.273C36.346 103.661 44.3414 96.9511 53.9815 91.3721C55.7511 91.7672 57.4874 92.1768 59.1094 92.6675C60.2926 93.0252 61.4383 93.3995 62.5425 93.7904C53.9296 98.7457 45.641 101.854 45.641 113.108V131.139C49.6273 128.396 54.073 126.394 58.236 124.52C70.0492 119.211 77.3229 115.317 77.8345 102.967C77.8241 99.4048 76.3914 96.9137 74.5261 95.1961L74.5303 95.1982L74.5053 95.1774C73.4615 94.2209 72.2824 93.5056 71.1408 92.9795C67.9739 91.3201 63.7215 89.8333 59.2404 88.4755L59.2487 88.4713L59.1156 88.438L59.1094 88.4359C56.6619 87.6978 53.9524 87.1384 51.2596 86.5437C27.2403 80.7816 0 73.4268 0 41.9049V0.00268555C19.3676 22.6288 86.1812 5.90614 87.1419 54.45H87.144C87.144 54.4833 87.1419 54.5145 87.1398 54.5478C87.1398 54.7723 87.1357 54.9928 87.1336 55.2152V107.498C87.1315 107.467 87.1294 107.436 87.1274 107.404Z" fill="#40BE46"/>
<path fill-rule="evenodd" clip-rule="evenodd" d="M0 0C19.3656 22.6261 86.1729 5.90345 87.1336 54.4473C87.1336 79.5999 71.17 87.2917 59.2549 88.4686C33.7655 82.1347 0 76.9965 0 41.9022V0.00207941V0Z" fill="url(#paint0_linear_7329_7003)"/>
<path fill-rule="evenodd" clip-rule="evenodd" d="M36.3418 148.269C46.7971 129.407 85.8297 135.233 87.1231 107.485C87.1231 89.0182 70.6064 86.5 59.2548 88.4588C47.4438 94.774 36.3418 101.229 36.3418 117.271V148.267V148.269Z" fill="url(#paint1_linear_7329_7003)"/>
<path fill-rule="evenodd" clip-rule="evenodd" d="M87.1228 107.494V54.4482C86.6425 74.4709 72.4941 81.3891 59.2524 88.4695C74.3615 92.2249 86.5676 96.4087 87.1228 107.494Z" fill="url(#paint2_linear_7329_7003)"/>
<path d="M131.254 74.105V80.6864H104.007V74.105H131.254ZM112.169 124.649V67.1286C112.169 64.2341 112.849 61.8199 114.209 59.8881C115.569 57.9584 117.334 56.509 119.507 55.5442C121.678 54.5793 123.972 54.0969 126.384 54.0969C128.293 54.0969 129.85 54.2508 131.056 54.5586C132.262 54.8663 133.163 55.1512 133.755 55.4132L131.518 62.1255C131.123 61.9945 130.576 61.8282 129.873 61.6327C129.193 61.4352 128.293 61.3374 127.174 61.3374C124.608 61.3374 122.753 61.9841 121.614 63.2796C120.495 64.573 119.936 66.4715 119.936 68.971V124.649H112.169ZM149.904 57.2576V124.649H142.138V57.2576H149.904ZM169.13 143.605C167.814 143.605 166.639 143.495 165.61 143.277C164.579 143.079 163.865 142.882 163.47 142.684L165.444 135.839C167.33 136.321 168.997 136.496 170.445 136.365C171.892 136.234 173.175 135.585 174.296 134.423C175.437 133.281 176.479 131.428 177.421 128.862L178.868 124.913L160.178 74.105H168.602L182.555 114.383H183.081L197.034 74.105H205.458L184.002 132.021C183.037 134.633 181.842 136.793 180.415 138.504C178.989 140.237 177.334 141.522 175.448 142.356C173.582 143.189 171.478 143.605 169.128 143.605H169.13Z" fill="white"/>
<path d="M103.697 50.8743C103.185 50.8743 102.738 50.841 102.358 50.7766C101.967 50.7204 101.632 50.6414 101.354 50.5395V47.7344C101.651 47.8093 101.973 47.8737 102.316 47.9299C102.661 47.986 103.027 48.013 103.418 48.013C103.93 48.013 104.396 47.9153 104.814 47.7199C105.232 47.5244 105.562 47.1709 105.806 46.6593C106.057 46.1478 106.182 45.4263 106.182 44.4968V24.7902H109.532V44.3866C109.532 45.9024 109.289 47.1355 108.806 48.0858C108.322 49.0444 107.644 49.7473 106.768 50.1944C105.895 50.6497 104.87 50.8785 103.697 50.8785V50.8743ZM118.128 45.1934H114.807V24.7881H126.336V27.6078H118.128V33.9729H125.805V36.778H118.128V45.1934ZM137.542 29.4501C137.801 29.4501 138.086 29.4647 138.392 29.4917C138.7 29.5188 138.964 29.5562 139.188 29.604L138.881 32.6753C138.685 32.6192 138.444 32.5776 138.155 32.5505C137.876 32.5235 137.625 32.5089 137.402 32.5089C136.816 32.5089 136.259 32.6067 135.728 32.8021C135.198 32.9872 134.728 33.2762 134.318 33.6672C133.909 34.0498 133.589 34.5281 133.356 35.1041C133.123 35.6801 133.006 36.3517 133.006 37.1148V45.1954H129.713V29.7454H132.281L132.728 32.4674H132.882C133.189 31.9184 133.57 31.4152 134.025 30.9598C134.481 30.5044 135.003 30.1405 135.589 29.8702C136.184 29.5915 136.837 29.4522 137.544 29.4522L137.542 29.4501ZM155.728 37.433C155.728 38.716 155.56 39.8576 155.227 40.8516C154.892 41.8476 154.403 42.6898 153.761 43.378C153.118 44.058 152.347 44.5779 151.444 44.9418C150.542 45.2953 149.523 45.472 148.388 45.472C147.327 45.472 146.356 45.2953 145.472 44.9418C144.589 44.5799 143.819 44.058 143.168 43.378C142.526 42.6898 142.029 41.8476 141.675 40.8516C141.322 39.8555 141.145 38.716 141.145 37.433C141.145 35.73 141.438 34.2889 142.025 33.1057C142.619 31.9142 143.466 31.0076 144.564 30.3838C145.662 29.76 146.97 29.448 148.485 29.448C149.91 29.448 151.166 29.76 152.253 30.3838C153.341 31.0076 154.193 31.9142 154.807 33.1057C155.42 34.2972 155.728 35.7383 155.728 37.433ZM144.52 37.433C144.52 38.558 144.655 39.5207 144.926 40.3213C145.204 41.1219 145.633 41.7353 146.211 42.1637C146.787 42.5816 147.531 42.7916 148.444 42.7916C149.355 42.7916 150.099 42.5816 150.677 42.1637C151.253 41.7353 151.677 41.1219 151.948 40.3213C152.218 39.5207 152.353 38.558 152.353 37.433C152.353 36.308 152.218 35.3536 151.948 34.5717C151.677 33.7815 151.255 33.1806 150.677 32.771C150.101 32.353 149.351 32.143 148.429 32.143C147.071 32.143 146.08 32.5984 145.456 33.5112C144.832 34.422 144.52 35.73 144.52 37.433ZM163.906 52.0596C161.812 52.0596 160.207 51.6832 159.093 50.9284C157.976 50.1756 157.419 49.1193 157.419 47.7594C157.419 46.8111 157.716 46.0043 158.313 45.3452C158.908 44.6943 159.76 44.2431 160.866 43.9915C160.446 43.8064 160.084 43.5174 159.777 43.1264C159.479 42.7272 159.33 42.2843 159.33 41.7998C159.33 41.2238 159.492 40.7289 159.818 40.3213C160.143 39.9117 160.631 39.5166 161.284 39.136C160.475 38.7909 159.822 38.2336 159.33 37.4621C158.845 36.6802 158.604 35.7632 158.604 34.7131C158.604 33.5965 158.841 32.6483 159.315 31.8664C159.789 31.0762 160.484 30.4753 161.394 30.0656C162.305 29.6477 163.409 29.4377 164.703 29.4377C164.981 29.4377 165.285 29.4564 165.609 29.4938C165.944 29.5208 166.252 29.5583 166.531 29.6061C166.82 29.6435 167.038 29.6851 167.188 29.7308H172.534V31.5587L169.91 32.0473C170.161 32.4008 170.361 32.8063 170.511 33.2617C170.658 33.7088 170.733 34.1974 170.733 34.7277C170.733 36.3288 170.18 37.589 169.072 38.5101C167.974 39.423 166.458 39.8784 164.522 39.8784C164.056 39.8597 163.605 39.8222 163.168 39.7661C162.833 39.9699 162.578 40.1986 162.401 40.4502C162.224 40.6914 162.135 40.9659 162.135 41.2737C162.135 41.5253 162.224 41.7291 162.401 41.8871C162.578 42.0368 162.838 42.147 163.183 42.2219C163.536 42.2967 163.965 42.3342 164.466 42.3342H167.132C168.824 42.3342 170.118 42.6918 171.012 43.4092C171.906 44.1266 172.353 45.1767 172.353 46.5637C172.353 48.3229 171.627 49.6766 170.176 50.6248C168.724 51.5834 166.637 52.0617 163.908 52.0617L163.906 52.0596ZM164.031 49.7556C165.175 49.7556 166.14 49.6433 166.919 49.4208C167.701 49.1983 168.292 48.876 168.691 48.458C169.09 48.0484 169.292 47.5597 169.292 46.9921C169.292 46.4888 169.167 46.1041 168.916 45.8338C168.664 45.5635 168.288 45.3784 167.785 45.2745C167.281 45.1726 166.657 45.1206 165.913 45.1206H163.484C162.879 45.1206 162.345 45.2142 161.879 45.3992C161.413 45.5947 161.051 45.8733 160.789 46.2372C160.538 46.6011 160.413 47.0378 160.413 47.5493C160.413 48.2563 160.725 48.8011 161.349 49.1817C161.981 49.5643 162.875 49.7535 164.029 49.7535L164.031 49.7556ZM164.674 37.7241C165.632 37.7241 166.343 37.4642 166.809 36.9423C167.275 36.412 167.506 35.6676 167.506 34.709C167.506 33.6672 167.265 32.8853 166.78 32.3634C166.306 31.8415 165.599 31.5815 164.659 31.5815C163.738 31.5815 163.035 31.8477 162.553 32.3779C162.079 32.9082 161.842 33.6942 161.842 34.736C161.842 35.6759 162.079 36.4099 162.553 36.9402C163.037 37.4621 163.744 37.722 164.674 37.722V37.7241Z" fill="#46AD43"/>
</g>
<path d="M212.46 126.271C212.46 118.539 218.728 112.271 226.46 112.271H249.46C257.192 112.271 263.46 118.539 263.46 126.271C263.46 134.002 257.192 140.271 249.46 140.271H226.46C218.728 140.271 212.46 134.002 212.46 126.271Z" fill="#EBEBEB" fill-opacity="0.0784314"/>
<path d="M223.538 122.704H226.204C227.345 122.704 228.208 122.864 228.794 123.185C229.38 123.505 229.673 124.067 229.673 124.872C229.673 125.196 229.62 125.489 229.515 125.751C229.413 126.013 229.265 126.228 229.069 126.396C228.874 126.563 228.636 126.673 228.354 126.724V126.782C228.64 126.841 228.897 126.942 229.128 127.087C229.358 127.228 229.542 127.435 229.679 127.708C229.819 127.978 229.89 128.337 229.89 128.786C229.89 129.306 229.763 129.751 229.509 130.122C229.255 130.493 228.892 130.778 228.419 130.978C227.95 131.173 227.392 131.271 226.743 131.271H223.538V122.704ZM225.354 126.097H226.409C226.937 126.097 227.302 126.015 227.505 125.851C227.708 125.683 227.81 125.437 227.81 125.112C227.81 124.784 227.688 124.55 227.446 124.409C227.208 124.265 226.829 124.192 226.31 124.192H225.354V126.097ZM225.354 127.538V129.771H226.538C227.085 129.771 227.466 129.665 227.681 129.454C227.896 129.243 228.003 128.96 228.003 128.604C228.003 128.394 227.956 128.208 227.862 128.048C227.769 127.888 227.61 127.763 227.388 127.673C227.169 127.583 226.866 127.538 226.479 127.538H225.354ZM236.534 131.271H231.601V122.704H236.534V124.192H233.417V126.073H236.317V127.562H233.417V129.771H236.534V131.271ZM241.632 131.271H239.815V124.216H237.489V122.704H243.958V124.216H241.632V131.271ZM250.521 131.271L249.899 129.231H246.776L246.155 131.271H244.198L247.222 122.669H249.442L252.478 131.271H250.521ZM249.466 127.708L248.845 125.716C248.806 125.583 248.753 125.413 248.687 125.206C248.624 124.995 248.56 124.782 248.493 124.567C248.431 124.349 248.38 124.159 248.341 123.999C248.302 124.159 248.247 124.358 248.177 124.597C248.11 124.831 248.046 125.054 247.983 125.265C247.921 125.476 247.876 125.626 247.849 125.716L247.233 127.708H249.466Z" fill="#F8F8F8" fill-opacity="0.709804"/>
<defs>
<linearGradient id="paint0_linear_7329_7003" x1="87.1336" y1="43.6594" x2="-0.526093" y2="43.6594" gradientUnits="userSpaceOnUse">
<stop stop-color="#55D551"/>
<stop offset="1" stop-color="#00A020"/>
</linearGradient>
<linearGradient id="paint1_linear_7329_7003" x1="86.2477" y1="118.729" x2="35.7783" y2="118.729" gradientUnits="userSpaceOnUse">
<stop stop-color="#2D3492"/>
<stop offset="1" stop-color="#0089D8"/>
</linearGradient>
<linearGradient id="paint2_linear_7329_7003" x1="98.6448" y1="87.4153" x2="65.8837" y2="68.4552" gradientUnits="userSpaceOnUse">
<stop stop-color="#00CF87"/>
<stop offset="1" stop-color="#219DE0"/>
</linearGradient>
<clipPath id="clip0_7329_7003">
<rect width="205.46" height="148.27" fill="white"/>
</clipPath>
</defs>
</svg>
